<svg width="60" height="60" viewBox="0 0 60 60" fill="none" xmlns="http://www.w3.org/2000/svg">
<path d="M2.37638 18.5793L25.4488 28.2841L3.8108 15.598L4.13983 15.0193L25.769 27.7002L5.94607 12.2541L6.34667 11.7239L26.1593 27.162L8.49241 9.22162L8.95773 8.7491L26.6166 26.6813L11.4068 6.55272L11.9289 6.14591L27.1335 26.2676L14.6397 4.29278L15.2096 3.95865L27.6969 25.9222L18.1351 2.48059L18.7431 2.22487L28.3002 25.6549L21.8335 1.14732L22.4691 0.974359L28.9326 25.4695L25.6715 0.315819L26.3239 0.228594L29.5841 25.3751L29.584 0H30.2421L30.2421 25.3608L33.5034 0.20545L34.1558 0.292674L30.8962 25.435L37.3626 0.928657L37.9982 1.10161L31.5345 25.5979L41.096 2.15719L41.7039 2.41292L32.1461 25.8448L44.6397 3.87028L45.2096 4.20441L32.7227 26.1671L47.9327 6.03822L48.4548 6.44502L33.252 26.5644L50.9189 8.62398L51.3842 9.0965L33.7254 27.0288L53.5471 11.5835L53.9477 12.1137L34.1331 27.5534L55.7729 14.8662L56.1019 15.4449L34.4728 28.1258L57.5573 18.4159L57.8092 19.0333L34.7371 28.738L58.8704 22.1714L59.0407 22.8168L34.9172 29.3808L59.6891 26.069L59.775 26.7315L35.0145 30.0418L60 30.0418V30.71L35.0255 30.71L59.7978 34.0219L59.7119 34.6844L34.9521 31.3742L59.0856 37.9409L58.9153 38.5864L34.7908 32.0222L57.8755 41.7322L57.6236 42.3496L34.553 32.6454L56.1892 45.3305L55.8602 45.9092L34.2302 33.2279L54.0539 48.6746L53.6533 49.2048L33.8402 33.7663L51.5076 51.7071L51.0423 52.1797L33.3836 34.2476L48.5934 54.3762L48.0713 54.783L32.8665 34.661L45.3603 56.6359L44.7904 56.9701L32.3032 35.0068L41.8649 58.448L41.2569 58.7037L31.6998 35.2737L38.1665 59.7813L37.5309 59.9542L30.0902 31.7554L22.6374 60L22.0018 59.827L28.4655 35.3306L18.904 58.7714L18.2961 58.5157L27.8536 35.0845L15.3603 57.0585L14.7904 56.7244L27.2772 34.7619L12.0673 54.8906L11.5452 54.4838L26.7485 34.3638L9.08109 52.3047L8.61577 51.8322L26.2749 33.8997L6.45287 49.3451L6.05227 48.815L25.8662 33.3759L4.22714 46.0626L3.89811 45.4839L25.5269 32.8032L2.44268 42.513L2.19085 41.8956L25.2639 32.1905L1.12963 38.7573L0.959312 38.1119L25.0827 31.5479L0.31086 34.8597L0.224965 34.1972L24.9851 30.887L0 30.887V30.2187L24.9745 30.2187L0.202221 26.9069L0.288116 26.2444L25.0486 29.5546L0.914403 22.9878L1.08472 22.3423L25.2082 28.9062L2.12455 19.1966L2.37638 18.5793Z" fill="url(#paint0_radial_0_167)"/>
<defs>
<radialGradient id="paint0_radial_0_167" cx="0" cy="0" r="1" gradientUnits="userSpaceOnUse" gradientTransform="translate(83.6943 -22.5806) rotate(135) scale(144.593)">
<stop stop-color="#E4B22F"/>
<stop offset="1" stop-color="#F249BB"/>
</radialGradient>
</defs>
</svg>
