<svg width="363" height="260" viewBox="0 0 363 260" fill="none" xmlns="http://www.w3.org/2000/svg">
<path d="M53.6021 101.473C53.6021 111.777 57.5021 121.702 64.5221 129.264C71.5421 136.825 81.1661 141.466 91.4701 142.258C91.8171 142.284 92.169 142.31 92.521 142.326V103.503C92.521 103.115 92.608 102.731 92.775 102.381C92.943 102.031 93.1871 101.722 93.4891 101.478C93.5241 101.443 93.563 101.411 93.605 101.384C93.643 101.353 93.6831 101.325 93.7261 101.3C94.0951 101.063 94.5191 100.922 94.9571 100.89C95.3951 100.858 95.8341 100.936 96.2351 101.117L96.6711 100.162C96.1941 99.9452 95.6761 99.8332 95.1511 99.8322L125.108 74.0982C124.877 73.8362 124.635 73.5792 124.393 73.3222C118.745 67.3852 111.442 63.2742 103.427 61.5192C95.4121 59.7652 87.0531 60.4472 79.4311 63.4782C71.8091 66.5092 65.2731 71.7502 60.6691 78.5232C56.0651 85.2962 53.6031 93.2912 53.6021 101.473Z" fill="#FFB6A0" fill-opacity="0.3"/>
<path d="M352.598 150.364C352.747 149.605 352.727 148.823 352.54 148.073C352.353 147.322 352.004 146.622 351.516 146.02C351.028 145.419 350.414 144.932 349.716 144.593C349.019 144.254 348.256 144.072 347.481 144.059L323.834 115.99L317.93 123.516L342.03 149.639C342.094 150.94 342.635 152.172 343.549 153.101C344.464 154.031 345.688 154.593 346.991 154.683C348.294 154.772 349.584 154.382 350.617 153.586C351.651 152.79 352.356 151.644 352.598 150.364Z" fill="#FFDCDC"/>
<path d="M240.307 115.816C240.472 116.055 240.619 116.306 240.745 116.568L266.565 120.248L270.486 115.285L278.771 120.206L270.983 132.314L239.492 123.058C238.661 123.808 237.621 124.288 236.51 124.434C235.399 124.581 234.269 124.386 233.271 123.876C232.274 123.367 231.455 122.567 230.925 121.582C230.395 120.597 230.177 119.475 230.302 118.364C230.427 117.253 230.888 116.207 231.624 115.364C232.36 114.521 233.336 113.921 234.422 113.644C235.508 113.368 236.653 113.427 237.704 113.815C238.755 114.203 239.663 114.901 240.307 115.816Z" fill="#FFDCDC"/>
<path d="M270.522 195.69L284.412 209.6L279.843 214.136L262.679 200.722C263.065 200.672 263.434 200.531 263.756 200.31L270.416 195.766C270.452 195.742 270.487 195.716 270.522 195.69Z" fill="#FFDCDC"/>
<path d="M275.255 227.116L289.615 212.858L284.091 207.326L275.279 216.075C274.551 216.798 273.972 217.658 273.576 218.604C273.181 219.551 272.976 220.565 272.974 221.591C272.972 222.616 273.172 223.631 273.564 224.58C273.955 225.528 274.53 226.389 275.255 227.116Z" fill="#E46138"/>
<path d="M308.7 235.862V253.112H302.252L300.096 235.681C300.227 235.709 300.36 235.728 300.496 235.735L307.532 236.086C307.575 236.088 307.618 236.089 307.66 236.089C308.022 236.09 308.377 236.012 308.7 235.862Z" fill="#FFDCDC"/>
<path d="M289.817 259.082L310.081 259.083V251.276L297.646 251.275C296.618 251.275 295.6 251.477 294.65 251.869C293.7 252.262 292.837 252.837 292.11 253.562C291.383 254.287 290.806 255.147 290.413 256.094C290.019 257.042 289.817 258.057 289.817 259.082Z" fill="#E46138"/>
<path opacity="0.4" d="M310.101 233.959L317.446 179.95C318.595 171.787 318.238 163.484 316.393 155.45C314.886 148.993 312.85 144.521 310.341 142.158C309.945 141.787 309.439 141.556 308.899 141.501L284.65 138.982C284.183 138.934 283.712 139.02 283.292 139.229C282.872 139.439 282.52 139.763 282.278 140.164L281.481 141.488C281.384 141.649 281.306 141.82 281.248 141.999L276.121 157.847C276.045 158.087 275.921 158.308 275.758 158.5C275.595 158.691 275.395 158.849 275.17 158.962C267.098 163.072 240.877 176.944 242.378 182.929C243.788 188.552 256.988 197.67 261 200.331C261.409 200.603 261.89 200.747 262.381 200.743C262.873 200.739 263.352 200.588 263.756 200.31L270.416 195.766C270.741 195.544 271.008 195.248 271.195 194.902C271.382 194.556 271.483 194.171 271.49 193.778C271.497 193.385 271.409 192.996 271.235 192.644C271.06 192.292 270.804 191.987 270.486 191.754L265.894 188.379C265.613 188.173 265.393 187.894 265.259 187.572C265.126 187.25 265.082 186.898 265.134 186.554C265.186 186.21 265.331 185.886 265.553 185.618C265.776 185.35 266.067 185.147 266.397 185.031L291.062 176.402C291.339 176.305 291.635 176.272 291.926 176.307C292.218 176.342 292.497 176.443 292.743 176.602C292.99 176.762 293.196 176.975 293.346 177.227C293.497 177.478 293.587 177.76 293.611 178.052L298.159 233.478C298.209 234.072 298.474 234.628 298.903 235.043C299.333 235.458 299.898 235.704 300.496 235.735L307.532 236.086C307.575 236.088 307.618 236.089 307.66 236.089C308.257 236.091 308.835 235.876 309.284 235.484C309.734 235.092 310.024 234.549 310.101 233.959Z" fill="#2663FF"/>
<path d="M298.98 94.2649C291.846 94.2649 286.063 88.4989 286.063 81.3849C286.063 74.2709 291.846 68.5039 298.98 68.5039C306.114 68.5039 311.898 74.2709 311.898 81.3849C311.898 88.4989 306.114 94.2649 298.98 94.2649Z" fill="#FFDCDC"/>
<path d="M311.062 139.951L320.571 105.357L320.408 105.248C320.204 105.11 299.709 91.6158 275.714 102.491L275.279 102.74L280.913 138.646C281.036 139.465 281.442 140.216 282.06 140.769C282.679 141.322 283.472 141.643 284.302 141.675L307.487 142.564C307.534 142.566 307.58 142.567 307.626 142.567C308.408 142.569 309.168 142.313 309.79 141.841C310.411 141.368 310.858 140.703 311.062 139.951Z" fill="#2255D5"/>
<path d="M320.932 127.879L328.851 118.798C329.233 118.362 329.448 117.805 329.458 117.226C329.468 116.648 329.273 116.084 328.907 115.634L320.629 105.437L314.274 107.165L310.905 118.924L317.048 127.675C317.262 127.982 317.544 128.236 317.872 128.418C318.2 128.599 318.566 128.703 318.941 128.721C318.985 128.724 319.029 128.725 319.073 128.725C319.426 128.725 319.774 128.65 320.095 128.504C320.416 128.358 320.702 128.145 320.932 127.879Z" fill="#2255D5"/>
<path d="M277.141 125.987C277.515 125.968 277.881 125.864 278.209 125.683C278.537 125.502 278.819 125.248 279.033 124.94L285.177 116.189L282.222 103.812L276.371 102.22L275.279 102.74L267.174 112.9C266.808 113.349 266.613 113.913 266.623 114.492C266.634 115.07 266.848 115.627 267.23 116.063L275.149 125.144C275.38 125.41 275.665 125.623 275.986 125.769C276.307 125.915 276.656 125.991 277.008 125.99C277.052 125.99 277.096 125.989 277.141 125.987Z" fill="#2255D5"/>
<path d="M1.91906 121.932C1.91416 122.063 1.95937 122.19 2.04537 122.289C2.13607 122.394 2.26506 122.46 2.40406 122.471C2.54316 122.481 2.68076 122.437 2.78676 122.346L4.54876 120.831L34.506 95.097L118.529 22.9093C119.008 22.5002 119.619 22.2758 120.25 22.2767C120.88 22.2777 121.49 22.504 121.968 22.9146L235.118 120.936L236.138 121.817C236.177 121.851 236.221 121.88 236.269 121.901C236.354 121.938 236.446 121.952 236.538 121.943C236.669 121.929 236.791 121.867 236.879 121.769C236.925 121.718 236.96 121.658 236.983 121.593C237.005 121.528 237.014 121.459 237.01 121.39C237.005 121.321 236.987 121.254 236.957 121.192C236.927 121.131 236.884 121.075 236.832 121.03L236.69 120.904L122.657 22.1227C121.987 21.5488 121.134 21.2324 120.251 21.2305C119.367 21.2286 118.512 21.5412 117.84 22.1122L33.791 94.321L2.10317 121.549C2.04787 121.597 2.00286 121.656 1.97126 121.722C1.93956 121.787 1.92176 121.859 1.91906 121.932Z" fill="white"/>
<path d="M65.804 137.418L67.187 133.621L71.952 120.511L82.219 92.281L93.694 60.726L114.39 3.80951C114.796 2.69951 115.627 1.7954 116.701 1.2951C117.774 0.794802 119.003 0.739103 120.117 1.1401L239.772 44.4C240.885 44.805 241.793 45.634 242.294 46.704C242.796 47.775 242.852 49 242.449 50.111L213.107 130.8L212.608 132.179L181.809 146.098L173.152 150.01L171.748 150.644L135.096 167.211L133.676 166.697L109.635 158.007L73.372 144.897L68.486 143.129C67.372 142.725 66.465 141.897 65.962 140.826C65.459 139.756 65.402 138.53 65.804 137.418Z" fill="#E89852"/>
<path d="M115.978 70.207C116.575 68.574 117.797 67.243 119.377 66.507C120.956 65.77 122.764 65.689 124.404 66.279L171.748 83.402L194.61 91.667C195.423 91.96 196.169 92.409 196.807 92.99C197.445 93.571 197.962 94.271 198.328 95.051C198.695 95.831 198.904 96.675 198.943 97.536C198.981 98.396 198.85 99.256 198.556 100.065C198.261 100.875 197.81 101.619 197.227 102.255C196.644 102.89 195.941 103.405 195.158 103.77C194.376 104.134 193.529 104.341 192.666 104.379C191.803 104.417 190.941 104.285 190.129 103.991L171.748 97.347L119.917 78.609C118.279 78.014 116.945 76.795 116.206 75.22C115.468 73.645 115.386 71.842 115.978 70.207Z" fill="#FFCCA0"/>
<path d="M107.642 93.1358C108.239 91.5018 109.461 90.1708 111.041 89.4348C112.62 88.6988 114.428 88.6168 116.067 89.2078L124.088 92.1078L171.748 109.34L186.274 114.59C187.912 115.184 189.247 116.402 189.985 117.976C190.723 119.55 190.804 121.353 190.21 122.987C189.616 124.621 188.396 125.953 186.818 126.69C185.24 127.427 183.432 127.51 181.793 126.919L171.748 123.285L111.581 101.532C111.445 101.484 111.313 101.427 111.182 101.369C109.654 100.701 108.438 99.4778 107.781 97.9488C107.124 96.4208 107.074 94.6998 107.642 93.1358Z" fill="#FFCCA0"/>
<path d="M99.2172 116.305C99.8122 114.672 101.033 113.341 102.612 112.604C104.19 111.868 105.998 111.786 107.637 112.377L130.131 120.511L147.545 126.809L171.748 135.557L177.849 137.764C179.259 138.277 180.451 139.253 181.229 140.533C182.006 141.813 182.322 143.319 182.125 144.802C182.064 145.244 181.959 145.678 181.809 146.098L173.152 150.01L171.748 149.501H171.737L127.817 133.621L103.156 124.706C101.517 124.112 100.181 122.894 99.4432 121.318C98.7042 119.743 98.6232 117.94 99.2172 116.305Z" fill="#FFCCA0"/>
<path d="M148.512 47.668C149.109 46.034 150.331 44.703 151.911 43.967C153.49 43.231 155.298 43.149 156.938 43.74L184.129 53.567C185.767 54.161 187.101 55.379 187.839 56.953C188.578 58.528 188.659 60.33 188.065 61.964C187.471 63.598 186.251 64.93 184.672 65.667C183.094 66.405 181.287 66.487 179.648 65.897L171.043 62.787L165.348 60.726L152.451 56.064C150.814 55.47 149.479 54.252 148.74 52.678C148.002 51.104 147.92 49.302 148.512 47.668Z" fill="#FFCCA0"/>
<path d="M40.002 60.7261H167.278C168.028 60.7271 168.767 60.9161 169.425 61.2761C170.083 61.6361 170.639 62.1561 171.043 62.7871C171.505 63.5011 171.749 64.3341 171.748 65.1831V150.644L135.096 167.211L129.931 169.545L121.774 173.232C121.296 173.447 120.778 173.558 120.254 173.558C119.73 173.558 119.212 173.447 118.734 173.232L110.577 169.545L85.048 158.007L61.255 147.251L35.531 135.63V65.1831C35.532 64.0011 36.003 62.8681 36.842 62.0321C37.68 61.1961 38.816 60.7271 40.002 60.7261Z" fill="#EF5F9E"/>
<path d="M66.2991 120.511H140.981C142.679 120.512 144.311 121.168 145.535 122.342C146.758 123.516 147.479 125.117 147.545 126.809C147.553 126.895 147.557 126.98 147.555 127.066C147.553 128.804 146.859 130.47 145.627 131.699C144.395 132.928 142.724 133.619 140.981 133.621H66.2991C64.5551 133.621 62.8831 132.931 61.6501 131.701C60.4171 130.472 59.7241 128.805 59.7241 127.066C59.7241 125.328 60.4171 123.66 61.6501 122.431C62.8831 121.201 64.5551 120.511 66.2991 120.511Z" fill="#FFA7CE"/>
<path d="M62.0439 146.46C63.2289 145.448 64.7379 144.894 66.2989 144.897H140.981C142.725 144.897 144.397 145.587 145.63 146.817C146.863 148.046 147.555 149.714 147.555 151.452C147.555 153.191 146.863 154.858 145.63 156.087C144.397 157.317 142.725 158.007 140.981 158.007H85.0479L61.2549 147.251C61.4949 146.966 61.7589 146.701 62.0439 146.46Z" fill="#FFA7CE"/>
<path d="M129.931 169.545L121.774 173.232C121.296 173.447 120.778 173.558 120.254 173.558C119.73 173.558 119.212 173.447 118.734 173.232L110.577 169.545H129.931Z" fill="#FFA7CE"/>
<path d="M83.0019 92.5638C83.4649 91.3018 84.3049 90.2118 85.4099 89.4418C86.5139 88.6718 87.8289 88.2588 89.1769 88.2578H118.103C119.366 88.2588 120.602 88.6228 121.663 89.3058C122.724 89.9878 123.566 90.9608 124.088 92.1078C124.478 92.9568 124.678 93.8798 124.677 94.8138C124.675 96.5518 123.981 98.2168 122.749 99.4458C121.516 100.675 119.846 101.367 118.103 101.369H89.1769C88.1189 101.369 87.0769 101.115 86.1389 100.628C85.2009 100.14 84.3949 99.4348 83.7889 98.5698C83.1829 97.7058 82.7949 96.7088 82.6579 95.6628C82.5209 94.6178 82.6389 93.5538 83.0019 92.5638Z" fill="#FFA7CE"/>
<path d="M87.599 158.007L113.128 169.545L119.17 172.277C119.511 172.43 119.88 172.509 120.254 172.509C120.627 172.509 120.997 172.43 121.337 172.277L127.38 169.545H129.931L121.774 173.232C121.296 173.447 120.778 173.558 120.254 173.558C119.73 173.558 119.212 173.447 118.734 173.232L110.577 169.545L85.048 158.007H87.599ZM87.599 158.007L113.128 169.545L119.17 172.277C119.511 172.43 119.88 172.509 120.254 172.509C120.627 172.509 120.997 172.43 121.337 172.277L127.38 169.545H129.931L121.774 173.232C121.296 173.447 120.778 173.558 120.254 173.558C119.73 173.558 119.212 173.447 118.734 173.232L110.577 169.545L85.048 158.007H87.599ZM87.599 158.007L113.128 169.545L119.17 172.277C119.511 172.43 119.88 172.509 120.254 172.509C120.627 172.509 120.997 172.43 121.337 172.277L127.38 169.545H129.931L121.774 173.232C121.296 173.447 120.778 173.558 120.254 173.558C119.73 173.558 119.212 173.447 118.734 173.232L110.577 169.545L85.048 158.007H87.599ZM1.91909 121.932C2.11309 121.739 2.32629 121.567 2.55549 121.418C3.07209 121.084 3.66499 120.885 4.27909 120.84C4.89319 120.795 5.50869 120.906 6.06879 121.161L62.044 146.459L87.599 158.007L113.128 169.545L119.17 172.277C119.511 172.43 119.88 172.509 120.254 172.509C120.627 172.509 120.997 172.43 121.337 172.277L127.38 169.545L133.676 166.697L171.738 149.501L171.748 149.496L182.125 144.802L213.107 130.8L234.439 121.161C234.656 121.061 234.884 120.985 235.118 120.936C235.633 120.807 236.17 120.796 236.69 120.904C237.522 121.074 238.27 121.524 238.807 122.18C239.344 122.835 239.639 123.655 239.641 124.502V256.202C239.64 257.175 239.251 258.108 238.561 258.796C237.871 259.484 236.935 259.871 235.959 259.873H4.54869C3.57259 259.871 2.63689 259.484 1.94669 258.796C1.25649 258.108 0.868294 257.175 0.867194 256.202V124.502C0.865394 123.54 1.24329 122.617 1.91909 121.932ZM1.91909 256.201C1.91939 256.897 2.19649 257.564 2.68959 258.055C3.18269 258.547 3.85139 258.823 4.54879 258.824H235.959C236.656 258.823 237.325 258.547 237.818 258.055C238.311 257.564 238.588 256.897 238.589 256.201V124.502C238.589 124.063 238.478 123.632 238.268 123.247C238.057 122.863 237.754 122.537 237.384 122.299C237.125 122.133 236.838 122.012 236.538 121.942C236.449 121.923 236.36 121.909 236.269 121.9C236.167 121.886 236.063 121.879 235.959 121.879C235.585 121.88 235.216 121.96 234.876 122.115L212.608 132.179L181.809 146.098L173.152 150.01L171.748 150.644L135.096 167.211L129.931 169.545L121.774 173.232C121.296 173.447 120.778 173.558 120.254 173.558C119.73 173.558 119.212 173.447 118.734 173.232L110.577 169.545L85.048 158.007L61.255 147.251L5.63219 122.115C5.23199 121.935 4.79269 121.857 4.35439 121.889C3.91619 121.921 3.49299 122.062 3.12349 122.299C3.08109 122.324 3.04069 122.352 3.00259 122.383C2.96049 122.41 2.92159 122.442 2.88669 122.477C2.58419 122.721 2.34029 123.03 2.17289 123.38C2.00549 123.73 1.91879 124.114 1.91909 124.502V256.201ZM87.599 158.007L113.128 169.545L119.17 172.277C119.511 172.43 119.88 172.509 120.254 172.509C120.627 172.509 120.997 172.43 121.337 172.277L127.38 169.545H129.931L121.774 173.232C121.296 173.447 120.778 173.558 120.254 173.558C119.73 173.558 119.212 173.447 118.734 173.232L110.577 169.545L85.048 158.007H87.599ZM87.599 158.007L113.128 169.545L119.17 172.277C119.511 172.43 119.88 172.509 120.254 172.509C120.627 172.509 120.997 172.43 121.337 172.277L127.38 169.545H129.931L121.774 173.232C121.296 173.447 120.778 173.558 120.254 173.558C119.73 173.558 119.212 173.447 118.734 173.232L110.577 169.545L85.048 158.007H87.599ZM173.152 150.01L171.748 150.644V149.501L173.152 150.01ZM87.599 158.007L113.128 169.545L119.17 172.277C119.511 172.43 119.88 172.509 120.254 172.509C120.627 172.509 120.997 172.43 121.337 172.277L127.38 169.545H129.931L121.774 173.232C121.296 173.447 120.778 173.558 120.254 173.558C119.73 173.558 119.212 173.447 118.734 173.232L110.577 169.545L85.048 158.007H87.599Z" fill="white"/>
<path d="M23 193.017C28.4737 192.804 38.789 194.485 36.263 202.912C36.263 199.933 38.663 194.23 48.263 195.251C60.263 196.528 60.895 214.083 59.632 224.936C63.105 211.849 66.895 203.55 78.263 195.89M70.684 193.975C69 194.932 65.253 197.996 63.737 202.593M76.053 215.679C75 216.105 72.074 217.594 68.789 220.148M69.421 227.808C74.474 227.808 85.463 228.447 89 231" stroke="white" stroke-width="3" stroke-linecap="round" stroke-linejoin="round"/>
<path d="M303.892 90.8049C304.862 90.3139 305.669 89.5529 306.214 88.6139C306.76 87.6749 307.021 86.5989 306.966 85.5159C306.911 84.4319 306.542 83.3879 305.904 82.5089C305.266 81.6299 304.386 80.9539 303.371 80.5639C299.473 79.0639 295.103 82.1249 291.017 81.2549C286.945 80.3869 284.589 75.5319 285.561 71.4949C286.533 67.4569 290.071 64.4159 293.972 62.9629C296.52 62.0169 299.249 61.6539 301.957 61.9019C304.664 62.1489 307.281 63.0009 309.614 64.3929C311.923 65.8259 313.846 67.7999 315.216 70.1429C316.586 72.4849 317.361 75.1259 317.474 77.8359C317.527 80.5479 316.863 83.2259 315.548 85.5999C314.232 87.9749 312.313 89.9619 309.983 91.3609C308.944 91.9579 307.736 92.4379 306.568 92.1689C305.609 91.8579 304.706 91.3979 303.892 90.8049Z" fill="#E46138"/>
<path d="M308.078 64.0788C311.515 59.5328 316.155 55.7978 321.554 53.9468C326.953 52.0948 333.123 52.2438 338.194 54.8608C343.265 57.4768 347.046 62.6738 347.441 68.3528C348.098 77.8058 339.998 85.8408 339.166 95.2798C338.903 98.2718 339.39 101.282 340.584 104.04C341.777 106.797 343.64 109.215 346.004 111.076C348.368 112.937 351.159 114.183 354.126 114.7C357.093 115.218 360.143 114.991 363 114.041C360.965 115.711 358.605 116.944 356.07 117.662C353.534 118.379 350.877 118.566 348.265 118.211C345.657 117.82 343.17 116.857 340.982 115.389C338.795 113.921 336.962 111.986 335.618 109.725C333.795 106.566 333.046 102.898 332.755 99.2648C332.299 93.5208 332.917 87.7428 334.579 82.2248C335.488 79.2138 336.72 76.1148 336.144 73.0238C335.815 71.4158 335.02 69.9398 333.858 68.7788C332.695 67.6178 331.215 66.8228 329.603 66.4928C326.998 66.0058 324.335 66.7988 321.847 67.7118C319.36 68.6238 316.852 69.6798 314.202 69.7398C311.552 69.8008 308.666 68.5908 307.642 66.1538L308.078 64.0788Z" fill="#E46138"/>
</svg>
