<svg width="434" height="331" viewBox="0 0 434 331" fill="none" xmlns="http://www.w3.org/2000/svg">
<g filter="url(#filter0_f_0_34)">
<path d="M124.602 165.473C124.602 175.777 128.502 185.702 135.522 193.264C142.542 200.825 152.166 205.466 162.47 206.258C162.817 206.284 163.169 206.31 163.521 206.326V167.503C163.521 167.115 163.608 166.731 163.775 166.381C163.943 166.031 164.187 165.722 164.489 165.478C164.524 165.443 164.563 165.411 164.605 165.384C164.643 165.353 164.683 165.325 164.726 165.3C165.095 165.063 165.519 164.922 165.957 164.89C166.395 164.858 166.834 164.936 167.235 165.117L167.671 164.162C167.194 163.945 166.676 163.833 166.151 163.832L196.108 138.098C195.877 137.836 195.635 137.579 195.393 137.322C189.745 131.385 182.442 127.274 174.427 125.519C166.412 123.765 158.053 124.447 150.431 127.478C142.809 130.509 136.273 135.75 131.669 142.523C127.065 149.296 124.603 157.291 124.602 165.473Z" fill="#FFB6A0" fill-opacity="0.3"/>
</g>
<path d="M423.598 214.364C423.747 213.605 423.727 212.823 423.54 212.073C423.353 211.322 423.004 210.622 422.516 210.02C422.028 209.419 421.414 208.932 420.716 208.593C420.019 208.254 419.256 208.072 418.481 208.059L394.834 179.99L388.93 187.516L413.03 213.639C413.094 214.94 413.635 216.172 414.549 217.101C415.464 218.031 416.688 218.593 417.991 218.683C419.294 218.772 420.584 218.382 421.617 217.586C422.651 216.79 423.356 215.644 423.598 214.364H423.598Z" fill="#FFDCDC"/>
<path d="M311.307 179.816C311.472 180.055 311.619 180.306 311.745 180.568L337.565 184.248L341.486 179.285L349.771 184.206L341.983 196.314L310.492 187.058C309.661 187.808 308.621 188.288 307.51 188.434C306.399 188.581 305.269 188.386 304.271 187.876C303.274 187.367 302.455 186.567 301.925 185.582C301.395 184.597 301.177 183.475 301.302 182.364C301.427 181.253 301.888 180.207 302.624 179.364C303.36 178.521 304.336 177.921 305.422 177.644C306.508 177.368 307.653 177.427 308.704 177.815C309.755 178.203 310.663 178.901 311.307 179.816Z" fill="#FFDCDC"/>
<path d="M341.522 259.69L355.412 273.6L350.843 278.136L333.679 264.722C334.065 264.672 334.434 264.531 334.756 264.31L341.416 259.766C341.452 259.742 341.487 259.716 341.522 259.69Z" fill="#FFDCDC"/>
<path d="M346.255 291.116L360.615 276.858L355.091 271.326L346.279 280.075C345.551 280.798 344.972 281.658 344.576 282.604C344.181 283.551 343.976 284.565 343.974 285.591C343.972 286.616 344.172 287.631 344.564 288.58C344.955 289.528 345.53 290.389 346.255 291.116L346.255 291.116Z" fill="#E46138"/>
<path d="M379.7 299.862L379.7 317.112H373.252L371.096 299.681C371.227 299.709 371.36 299.728 371.496 299.735L378.532 300.086C378.575 300.088 378.618 300.089 378.66 300.089C379.022 300.09 379.377 300.012 379.7 299.862Z" fill="#FFDCDC"/>
<path d="M360.817 323.082L381.081 323.083L381.081 315.276L368.646 315.275C367.618 315.275 366.6 315.477 365.65 315.869C364.7 316.262 363.837 316.837 363.11 317.562C362.383 318.287 361.806 319.147 361.413 320.094C361.019 321.042 360.817 322.057 360.817 323.082Z" fill="#E46138"/>
<path opacity="0.4" d="M381.101 297.959L388.446 243.95C389.595 235.787 389.238 227.484 387.393 219.45C385.886 212.993 383.85 208.521 381.341 206.158C380.945 205.787 380.439 205.556 379.899 205.501L355.65 202.982C355.183 202.934 354.712 203.02 354.292 203.229C353.872 203.439 353.52 203.763 353.278 204.164L352.481 205.488C352.384 205.649 352.306 205.82 352.248 205.999L347.121 221.847C347.045 222.087 346.921 222.308 346.758 222.5C346.595 222.691 346.395 222.849 346.17 222.962C338.098 227.072 311.877 240.944 313.378 246.929C314.788 252.552 327.988 261.67 332 264.331C332.409 264.603 332.89 264.747 333.381 264.743C333.873 264.739 334.352 264.588 334.756 264.31L341.416 259.766C341.741 259.544 342.008 259.248 342.195 258.902C342.382 258.556 342.483 258.171 342.49 257.778C342.497 257.385 342.409 256.996 342.235 256.644C342.06 256.292 341.804 255.987 341.486 255.754L336.894 252.379C336.613 252.173 336.393 251.894 336.259 251.572C336.126 251.25 336.082 250.898 336.134 250.554C336.186 250.21 336.331 249.886 336.553 249.618C336.776 249.35 337.067 249.147 337.397 249.031L362.062 240.402C362.339 240.305 362.635 240.272 362.926 240.307C363.218 240.342 363.497 240.443 363.743 240.602C363.99 240.762 364.196 240.975 364.346 241.227C364.497 241.478 364.587 241.76 364.611 242.052L369.159 297.478C369.209 298.072 369.474 298.628 369.903 299.043C370.333 299.458 370.898 299.704 371.496 299.735L378.532 300.086C378.575 300.088 378.618 300.089 378.66 300.089C379.257 300.091 379.835 299.876 380.284 299.484C380.734 299.092 381.024 298.549 381.101 297.959Z" fill="#2663FF"/>
<path d="M369.98 158.265C362.846 158.265 357.063 152.499 357.063 145.385C357.063 138.271 362.846 132.504 369.98 132.504C377.114 132.504 382.898 138.271 382.898 145.385C382.898 152.499 377.114 158.265 369.98 158.265Z" fill="#FFDCDC"/>
<path d="M382.062 203.951L391.571 169.357L391.408 169.248C391.204 169.11 370.709 155.616 346.714 166.491L346.279 166.74L351.913 202.646C352.036 203.465 352.442 204.216 353.06 204.769C353.679 205.322 354.472 205.643 355.302 205.675L378.487 206.564C378.534 206.566 378.58 206.567 378.626 206.567C379.408 206.569 380.168 206.313 380.79 205.841C381.411 205.368 381.858 204.703 382.062 203.951Z" fill="#2255D5"/>
<path d="M391.932 191.879L399.851 182.798C400.233 182.362 400.448 181.805 400.458 181.226C400.468 180.648 400.273 180.084 399.907 179.634L391.629 169.437L385.274 171.165L381.905 182.924L388.048 191.675C388.262 191.982 388.544 192.236 388.872 192.418C389.2 192.599 389.566 192.703 389.941 192.721C389.985 192.724 390.029 192.725 390.073 192.725C390.426 192.725 390.774 192.65 391.095 192.504C391.416 192.358 391.702 192.145 391.932 191.879Z" fill="#2255D5"/>
<path d="M348.141 189.987C348.515 189.968 348.881 189.864 349.209 189.683C349.537 189.502 349.819 189.248 350.033 188.94L356.177 180.189L353.222 167.812L347.371 166.22L346.279 166.74L338.174 176.9C337.808 177.349 337.613 177.913 337.623 178.492C337.634 179.07 337.848 179.627 338.23 180.063L346.149 189.144C346.38 189.41 346.665 189.623 346.986 189.769C347.307 189.915 347.656 189.991 348.008 189.99C348.052 189.99 348.096 189.989 348.141 189.987Z" fill="#2255D5"/>
<path d="M72.9191 185.932C72.9142 186.063 72.9594 186.19 73.0454 186.289C73.1361 186.394 73.2651 186.46 73.4041 186.471C73.5432 186.481 73.6808 186.437 73.7868 186.346L75.5488 184.831L105.506 159.097L189.529 86.9093C190.008 86.5002 190.619 86.2758 191.25 86.2767C191.88 86.2777 192.49 86.504 192.968 86.9146L306.118 184.936L307.138 185.817C307.177 185.851 307.221 185.88 307.269 185.901C307.354 185.938 307.446 185.952 307.538 185.943C307.669 185.929 307.791 185.867 307.879 185.769C307.925 185.718 307.96 185.658 307.983 185.593C308.005 185.528 308.014 185.459 308.01 185.39C308.005 185.321 307.987 185.254 307.957 185.192C307.927 185.131 307.884 185.075 307.832 185.03L307.69 184.904L193.657 86.1227C192.987 85.5488 192.134 85.2324 191.251 85.2305C190.367 85.2286 189.512 85.5412 188.84 86.1122L104.791 158.321L73.1032 185.549C73.0479 185.597 73.0029 185.656 72.9713 185.722C72.9396 185.787 72.9218 185.859 72.9191 185.932Z" fill="white"/>
<path d="M136.804 201.418L138.187 197.621L142.952 184.511L153.219 156.281L164.694 124.726L185.39 67.8095C185.796 66.6995 186.627 65.7954 187.701 65.2951C188.774 64.7948 190.003 64.7391 191.117 65.1401L310.772 108.4C311.885 108.805 312.793 109.634 313.294 110.704C313.796 111.775 313.852 113 313.449 114.111L284.107 194.8L283.608 196.179L252.809 210.098L244.152 214.01L242.748 214.644L206.096 231.211L204.676 230.697L180.635 222.007L144.372 208.897L139.486 207.129C138.372 206.725 137.465 205.897 136.962 204.826C136.459 203.756 136.402 202.53 136.804 201.418Z" fill="#E89852"/>
<path d="M186.978 134.207C187.575 132.574 188.797 131.243 190.377 130.507C191.956 129.77 193.764 129.689 195.404 130.279L242.748 147.402L265.61 155.667C266.423 155.96 267.169 156.409 267.807 156.99C268.445 157.571 268.962 158.271 269.328 159.051C269.695 159.831 269.904 160.675 269.943 161.536C269.981 162.396 269.85 163.256 269.556 164.065C269.261 164.875 268.81 165.619 268.227 166.255C267.644 166.89 266.941 167.405 266.158 167.77C265.376 168.134 264.529 168.341 263.666 168.379C262.803 168.417 261.941 168.285 261.129 167.991L242.748 161.347L190.917 142.609C189.279 142.014 187.945 140.795 187.206 139.22C186.468 137.645 186.386 135.842 186.978 134.207Z" fill="#FFCCA0"/>
<path d="M178.642 157.136C179.239 155.502 180.461 154.171 182.041 153.435C183.62 152.699 185.428 152.617 187.067 153.208L195.088 156.108L242.748 173.34L257.274 178.59C258.912 179.184 260.247 180.402 260.985 181.976C261.723 183.55 261.804 185.353 261.21 186.987C260.616 188.621 259.396 189.953 257.818 190.69C256.24 191.427 254.432 191.51 252.793 190.919L242.748 187.285L182.581 165.532C182.445 165.484 182.313 165.427 182.182 165.369C180.654 164.701 179.438 163.478 178.781 161.949C178.124 160.421 178.074 158.7 178.642 157.136Z" fill="#FFCCA0"/>
<path d="M170.217 180.305C170.812 178.672 172.033 177.341 173.612 176.604C175.19 175.868 176.998 175.786 178.637 176.377L201.131 184.511L218.545 190.809L242.748 199.557L248.849 201.764C250.259 202.277 251.451 203.253 252.229 204.533C253.006 205.813 253.322 207.319 253.125 208.802C253.064 209.244 252.959 209.678 252.809 210.098L244.152 214.01L242.748 213.501H242.737L198.817 197.621L174.156 188.706C172.517 188.112 171.181 186.894 170.443 185.318C169.704 183.743 169.623 181.94 170.217 180.305H170.217Z" fill="#FFCCA0"/>
<path d="M219.512 111.668C220.109 110.034 221.331 108.703 222.911 107.967C224.49 107.231 226.298 107.149 227.938 107.74L255.129 117.567C256.767 118.161 258.101 119.379 258.839 120.953C259.578 122.528 259.659 124.33 259.065 125.964C258.471 127.598 257.251 128.93 255.672 129.667C254.094 130.405 252.287 130.487 250.648 129.897L242.043 126.787L236.348 124.726L223.451 120.064C221.814 119.47 220.479 118.252 219.74 116.678C219.002 115.104 218.92 113.302 219.512 111.668Z" fill="#FFCCA0"/>
<path d="M111.002 124.726H238.278C239.028 124.727 239.767 124.916 240.425 125.276C241.083 125.636 241.639 126.156 242.043 126.787C242.505 127.501 242.749 128.334 242.748 129.183V214.644L206.096 231.211L200.931 233.545L192.774 237.232C192.296 237.447 191.778 237.558 191.254 237.558C190.73 237.558 190.212 237.447 189.734 237.232L181.577 233.545L156.048 222.007L132.255 211.251L106.531 199.63V129.183C106.532 128.001 107.003 126.868 107.842 126.032C108.68 125.196 109.816 124.727 111.002 124.726Z" fill="#EF5F9E"/>
<path d="M137.299 184.511H211.981C213.679 184.512 215.311 185.168 216.535 186.342C217.758 187.516 218.479 189.117 218.545 190.809C218.553 190.895 218.557 190.98 218.555 191.066C218.553 192.804 217.859 194.47 216.627 195.699C215.395 196.928 213.724 197.619 211.981 197.621H137.299C135.555 197.621 133.883 196.931 132.65 195.701C131.417 194.472 130.724 192.805 130.724 191.066C130.724 189.328 131.417 187.66 132.65 186.431C133.883 185.201 135.555 184.511 137.299 184.511Z" fill="#FFA7CE"/>
<path d="M133.044 210.46C134.229 209.448 135.738 208.894 137.299 208.897H211.981C213.725 208.897 215.397 209.587 216.63 210.817C217.863 212.046 218.555 213.714 218.555 215.452C218.555 217.191 217.863 218.858 216.63 220.087C215.397 221.317 213.725 222.007 211.981 222.007H156.048L132.255 211.251C132.495 210.966 132.759 210.701 133.044 210.46Z" fill="#FFA7CE"/>
<path d="M200.931 233.545L192.774 237.232C192.296 237.447 191.778 237.558 191.254 237.558C190.73 237.558 190.212 237.447 189.734 237.232L181.577 233.545H200.931Z" fill="#FFA7CE"/>
<path d="M154.002 156.564C154.465 155.302 155.305 154.212 156.41 153.442C157.514 152.672 158.829 152.259 160.177 152.258H189.103C190.366 152.259 191.602 152.623 192.663 153.306C193.724 153.988 194.566 154.961 195.088 156.108C195.478 156.957 195.678 157.88 195.677 158.814C195.675 160.552 194.981 162.217 193.749 163.446C192.516 164.675 190.846 165.367 189.103 165.369H160.177C159.119 165.369 158.077 165.115 157.139 164.628C156.201 164.14 155.395 163.435 154.789 162.57C154.183 161.706 153.795 160.709 153.658 159.663C153.521 158.618 153.639 157.554 154.002 156.564Z" fill="#FFA7CE"/>
<path d="M158.599 222.007L184.128 233.545L190.17 236.277C190.511 236.43 190.88 236.509 191.254 236.509C191.627 236.509 191.997 236.43 192.337 236.277L198.38 233.545H200.931L192.774 237.232C192.296 237.447 191.778 237.558 191.254 237.558C190.73 237.558 190.212 237.447 189.734 237.232L181.577 233.545L156.048 222.007H158.599ZM158.599 222.007L184.128 233.545L190.17 236.277C190.511 236.43 190.88 236.509 191.254 236.509C191.627 236.509 191.997 236.43 192.337 236.277L198.38 233.545H200.931L192.774 237.232C192.296 237.447 191.778 237.558 191.254 237.558C190.73 237.558 190.212 237.447 189.734 237.232L181.577 233.545L156.048 222.007H158.599ZM158.599 222.007L184.128 233.545L190.17 236.277C190.511 236.43 190.88 236.509 191.254 236.509C191.627 236.509 191.997 236.43 192.337 236.277L198.38 233.545H200.931L192.774 237.232C192.296 237.447 191.778 237.558 191.254 237.558C190.73 237.558 190.212 237.447 189.734 237.232L181.577 233.545L156.048 222.007H158.599ZM72.9191 185.932C73.1131 185.739 73.3263 185.567 73.5555 185.418C74.0721 185.084 74.665 184.885 75.2791 184.84C75.8932 184.795 76.5087 184.906 77.0688 185.161L133.044 210.459L158.599 222.007L184.128 233.545L190.17 236.277C190.511 236.43 190.88 236.509 191.254 236.509C191.627 236.509 191.997 236.43 192.337 236.277L198.38 233.545L204.676 230.697L242.738 213.501L242.748 213.496L253.125 208.802L284.107 194.8L305.439 185.161C305.656 185.061 305.884 184.985 306.118 184.936C306.633 184.807 307.17 184.796 307.69 184.904C308.522 185.074 309.27 185.524 309.807 186.18C310.344 186.835 310.639 187.655 310.641 188.502V320.202C310.64 321.175 310.251 322.108 309.561 322.796C308.871 323.484 307.935 323.871 306.959 323.873H75.5487C74.5726 323.871 73.6369 323.484 72.9467 322.796C72.2565 322.108 71.8683 321.175 71.8672 320.202V188.502C71.8654 187.54 72.2433 186.617 72.9191 185.932V185.932ZM72.9191 320.201C72.9194 320.897 73.1965 321.564 73.6896 322.055C74.1827 322.547 74.8514 322.823 75.5488 322.824H306.959C307.656 322.823 308.325 322.547 308.818 322.055C309.311 321.564 309.588 320.897 309.589 320.201V188.502C309.589 188.063 309.478 187.632 309.268 187.247C309.057 186.863 308.754 186.537 308.384 186.299C308.125 186.133 307.838 186.012 307.538 185.942C307.449 185.923 307.36 185.909 307.269 185.9C307.167 185.886 307.063 185.879 306.959 185.879C306.585 185.88 306.216 185.96 305.876 186.115L283.608 196.179L252.809 210.098L244.152 214.01L242.748 214.644L206.096 231.211L200.931 233.545L192.774 237.232C192.296 237.447 191.778 237.558 191.254 237.558C190.73 237.558 190.212 237.447 189.734 237.232L181.577 233.545L156.048 222.007L132.255 211.251L76.6322 186.115C76.232 185.935 75.7927 185.857 75.3544 185.889C74.9162 185.921 74.493 186.062 74.1235 186.299C74.0811 186.324 74.0407 186.352 74.0026 186.383C73.9605 186.41 73.9216 186.442 73.8867 186.477C73.5842 186.721 73.3403 187.03 73.1729 187.38C73.0055 187.73 72.9188 188.114 72.9191 188.502L72.9191 320.201ZM158.599 222.007L184.128 233.545L190.17 236.277C190.511 236.43 190.88 236.509 191.254 236.509C191.627 236.509 191.997 236.43 192.337 236.277L198.38 233.545H200.931L192.774 237.232C192.296 237.447 191.778 237.558 191.254 237.558C190.73 237.558 190.212 237.447 189.734 237.232L181.577 233.545L156.048 222.007H158.599ZM158.599 222.007L184.128 233.545L190.17 236.277C190.511 236.43 190.88 236.509 191.254 236.509C191.627 236.509 191.997 236.43 192.337 236.277L198.38 233.545H200.931L192.774 237.232C192.296 237.447 191.778 237.558 191.254 237.558C190.73 237.558 190.212 237.447 189.734 237.232L181.577 233.545L156.048 222.007H158.599ZM244.152 214.01L242.748 214.644V213.501L244.152 214.01ZM158.599 222.007L184.128 233.545L190.17 236.277C190.511 236.43 190.88 236.509 191.254 236.509C191.627 236.509 191.997 236.43 192.337 236.277L198.38 233.545H200.931L192.774 237.232C192.296 237.447 191.778 237.558 191.254 237.558C190.73 237.558 190.212 237.447 189.734 237.232L181.577 233.545L156.048 222.007H158.599Z" fill="white"/>
<path d="M94 257.017C99.4737 256.804 109.789 258.485 107.263 266.912C107.263 263.933 109.663 258.23 119.263 259.251C131.263 260.528 131.895 278.083 130.632 288.936C134.105 275.849 137.895 267.55 149.263 259.89M141.684 257.975C140 258.932 136.253 261.996 134.737 266.593M147.053 279.679C146 280.105 143.074 281.594 139.789 284.148M140.421 291.808C145.474 291.808 156.463 292.447 160 295" stroke="white" stroke-width="3" stroke-linecap="round" stroke-linejoin="round"/>
<path d="M374.892 154.805C375.862 154.314 376.669 153.553 377.214 152.614C377.76 151.675 378.021 150.599 377.966 149.516C377.911 148.432 377.542 147.388 376.904 146.509C376.266 145.63 375.386 144.954 374.371 144.564C370.473 143.064 366.103 146.125 362.017 145.255C357.945 144.387 355.589 139.532 356.561 135.495C357.533 131.457 361.071 128.416 364.972 126.963C367.52 126.017 370.249 125.654 372.957 125.902C375.664 126.149 378.281 127.001 380.614 128.393C382.923 129.826 384.846 131.8 386.216 134.143C387.586 136.485 388.361 139.126 388.474 141.836C388.527 144.548 387.863 147.226 386.548 149.6C385.232 151.975 383.313 153.962 380.983 155.361C379.944 155.958 378.736 156.438 377.568 156.169C376.609 155.858 375.706 155.398 374.892 154.805Z" fill="#E46138"/>
<path d="M379.078 128.079C382.515 123.533 387.155 119.798 392.554 117.947C397.953 116.095 404.123 116.244 409.194 118.861C414.265 121.477 418.046 126.674 418.441 132.353C419.098 141.806 410.998 149.841 410.166 159.28C409.903 162.272 410.39 165.282 411.584 168.04C412.777 170.797 414.64 173.215 417.004 175.076C419.368 176.937 422.159 178.183 425.126 178.7C428.093 179.218 431.143 178.991 434 178.041C431.965 179.711 429.605 180.944 427.07 181.662C424.534 182.379 421.877 182.566 419.265 182.211C416.657 181.82 414.17 180.857 411.982 179.389C409.795 177.921 407.962 175.986 406.618 173.725C404.795 170.566 404.046 166.898 403.755 163.265C403.299 157.521 403.917 151.743 405.579 146.225C406.488 143.214 407.72 140.115 407.144 137.024C406.815 135.416 406.02 133.94 404.858 132.779C403.695 131.618 402.215 130.823 400.603 130.493C397.998 130.006 395.335 130.799 392.847 131.712C390.36 132.624 387.852 133.68 385.202 133.74C382.552 133.801 379.666 132.591 378.642 130.154L379.078 128.079Z" fill="#E46138"/>
<defs>
<filter id="filter0_f_0_34" x="0.602417" y="0.567627" width="319.506" height="329.759" filterUnits="userSpaceOnUse" color-interpolation-filters="sRGB">
<feFlood flood-opacity="0" result="BackgroundImageFix"/>
<feBlend mode="normal" in="SourceGraphic" in2="BackgroundImageFix" result="shape"/>
<feGaussianBlur stdDeviation="62" result="effect1_foregroundBlur_0_34"/>
</filter>
</defs>
</svg>
